<svg width="1373" height="1423" viewBox="0 0 1373 1423" fill="none" xmlns="http://www.w3.org/2000/svg">
<rect width="1373" height="1423" rx="250" fill="url(#paint0_radial_1111_2159)"/>
<rect x="30" y="30" width="1313" height="1363" rx="250" fill="url(#paint1_radial_1111_2159)"/>
<rect x="50" y="50" width="1273" height="1323" rx="250" fill="url(#paint2_radial_1111_2159)"/>
<path d="M758.891 718.979C759.253 721.347 759.309 723.771 759.155 726.125C758.644 733.936 758.105 741.454 757.538 748.679C755.294 777.446 754.653 807.119 759.239 835.649C764.712 869.678 780.579 898.524 806.839 922.188C832.849 945.633 865.298 959.425 894.75 977.187C915.733 989.836 932.445 1005.19 944.888 1023.24C962.413 1048.67 968.212 1075.89 962.283 1104.89C957.033 1130.52 943.41 1151.04 921.415 1166.44C897.626 1183.09 871.115 1188.65 841.881 1183.11C831.576 1181.16 821.229 1176.41 810.84 1168.86C791.288 1154.65 780.426 1135.54 778.251 1111.54C775.77 1084.19 788.636 1057.62 814.645 1047.47C829.727 1041.58 849.701 1042.45 857.785 1058.28C860.085 1062.79 860.684 1072.32 854.523 1074.44C852.107 1075.27 849.58 1076.05 846.941 1076.76C838.513 1079.03 832.658 1083.62 829.378 1090.53C823.621 1102.63 827.315 1118.64 838.396 1126.34C848.126 1133.09 861.061 1133.14 872.616 1130.2C881.49 1127.94 888.766 1123.25 894.444 1116.13C909.804 1096.87 908.076 1071.9 896.632 1051.34C885.049 1030.53 867.166 1016.14 845.979 1005.06C823.914 993.542 803.829 983.052 784.956 969.455C744.548 940.34 717.897 896.625 709.06 848.466C705.519 829.13 704 809.25 704.098 788.772C704.172 770.421 704.051 754.79 703.735 741.881C703.317 725.35 701.078 709.371 697.017 693.945C694.053 682.698 690.888 671.029 687.525 658.937C686.447 655.064 685.652 651.08 685.141 646.984C685.039 646.083 684.844 646.06 684.556 646.914C684.165 648.126 684.305 649.506 683.984 650.745C680.918 662.522 677.726 674.265 674.408 685.976C671.425 696.49 669.167 707.202 667.634 718.115C666.612 725.35 666.031 734.614 665.892 745.907C665.571 771.776 666.575 797.284 664.289 821.774C663.285 832.473 661.199 844.435 658.03 857.66C649.797 891.986 633.601 921.788 609.44 947.068C585.508 972.116 555.219 988.749 524.721 1004.49C511.944 1011.09 501.23 1018.32 492.579 1026.18C469.385 1047.26 454.178 1080.69 470.848 1109.93C479.588 1125.26 495.283 1132.71 512.887 1131.99C527.314 1131.4 538.994 1123.32 541.796 1108.79C544.375 1095.45 537.503 1081.54 524.192 1077.42C521.051 1076.44 517.836 1075.54 514.546 1074.72C513.301 1074.4 512.39 1073.7 511.814 1072.6C509.305 1067.89 509.361 1062.94 511.981 1057.76C519.759 1042.4 541.42 1041.52 555.428 1047.89C582.79 1060.31 594.944 1087.39 590.33 1116.73C586.902 1138.51 574.259 1157.93 556 1170.28C527.537 1189.56 490.265 1189.98 459.795 1174.1C436.527 1161.97 420.014 1143.53 410.257 1118.79C406.354 1108.89 404.436 1097.48 404.501 1084.57C404.575 1068.29 408.231 1052.99 415.47 1038.65C425.645 1018.51 440.295 1001.49 459.419 987.593C469.455 980.293 480.48 973.551 491.519 967.672C515.689 954.8 539.036 942.192 559.484 924.598C586.205 901.626 604.771 870.24 610.277 834.451C613.334 814.604 614.212 793.796 612.911 772.027C612.326 762.276 611.921 752.691 611.043 742.786C610.365 735.05 609.868 727.425 609.552 719.912C609.496 718.519 609.227 718.477 608.743 719.787C608.186 721.319 607.456 722.768 606.555 724.133C583.501 758.923 550.698 778.5 508.148 782.865C497.629 783.943 487.124 784.226 476.633 783.715C454.164 782.619 432.252 781.7 410.898 780.957C383.486 780.019 359.809 787.862 339.867 804.486C311.655 828.001 296.755 863.302 302.776 899.731C306.977 925.178 319.391 945.48 340.02 960.637C364.399 978.552 399.246 980.07 425.074 967.226C432.722 963.428 440.792 958.287 449.285 951.805C477.135 930.518 501.829 907.435 523.369 882.555C541.954 861.101 552.817 835.965 555.958 807.147C556.014 806.655 556.288 806.357 556.78 806.255C567.708 804.026 577.869 799.782 587.264 793.523C587.307 793.49 587.358 793.472 587.411 793.469C587.465 793.467 587.518 793.48 587.565 793.508C587.612 793.536 587.65 793.577 587.676 793.627C587.702 793.676 587.714 793.732 587.71 793.787C586.553 818.96 581.577 843.13 570.022 865.782C556.404 892.501 533.489 911.921 508.58 927.579C495.813 935.603 482.808 943.748 469.566 952.014C455.126 961.041 441.754 971.628 429.451 983.776C416.585 996.481 407.107 1011.54 400.57 1027.8C400.44 1028.12 400.203 1028.27 399.859 1028.24C389.503 1027.48 378.84 1026.25 368.664 1023.35C334.004 1013.48 305.546 994.67 283.29 966.92C273.542 954.753 266.006 941.951 260.682 928.512C252.653 908.243 251.217 887.138 252.82 865.74C258.493 790.597 320.576 732.784 394.813 728.925C402.489 728.526 410.146 728.535 417.784 728.953C433.256 729.789 449.806 730.541 467.434 731.21C476.475 731.554 485.187 731.363 493.568 730.639C536.29 726.975 570.189 699.308 581.577 657.962C582.85 653.383 584.188 648.79 585.591 644.184C585.656 643.961 585.582 643.812 585.368 643.738C585.21 643.673 585.094 643.72 585.02 643.877C583.254 647.695 580.815 651.344 577.702 654.827C559.805 674.86 539.636 691.214 514.672 699.838C503.307 703.766 490.395 705.364 475.936 704.63C451.446 703.39 430.998 691.437 415.108 672.589C400.324 655.064 393.299 634.144 394.033 609.831C394.688 587.876 400.793 567.94 406.131 547.058C406.931 543.956 407.939 538.853 409.156 531.748C415.679 493.564 405.88 456.466 373.599 433.229C355.088 419.883 331.434 414.604 309.383 420.482C283.876 427.295 259.845 456.689 277.882 482.962C284.656 492.839 298.344 496.587 306.916 486.515C308.338 484.852 309.184 482.786 309.453 480.315C309.983 475.314 310.401 469.254 313.426 465.187C317.728 459.401 323.787 456.991 331.602 457.956C349.819 460.185 355.98 480.58 353.764 496.322C352.259 507.021 345.972 518.556 338.097 526.204C324.697 539.224 308.055 544.829 288.169 543.018C267.777 541.165 248.959 528.251 237.125 511.646C224.228 493.545 219.563 473.345 223.131 451.047C225.166 438.314 229.153 427.299 235.09 418.003C247.756 398.175 264.603 384.318 285.632 376.433C335.003 357.919 391.147 372.728 425.813 411.929C443.794 432.259 454.944 455.068 459.265 480.357C463.67 506.115 461.551 533.141 455.056 558.607C447.111 589.784 432.712 630.657 466.792 652.556C473.055 656.578 480.833 658.983 490.126 659.773C508.46 661.324 525.381 656.638 540.89 645.716C562.258 630.657 580.629 604.606 579.263 576.995C579.258 576.896 579.28 576.796 579.327 576.708C579.375 576.62 579.446 576.546 579.532 576.496C579.619 576.445 579.717 576.42 579.817 576.422C579.918 576.424 580.015 576.454 580.1 576.508C594.317 585.605 613.622 583.501 626.961 573.652C650.49 556.266 659.745 527.304 656.051 498.635C654.769 488.753 652.125 479.925 648.12 472.152C636.718 450.086 614.068 436.991 589.62 445.739C578.692 449.654 569.659 459.433 563.471 469.199C562.932 470.062 562.667 469.983 562.676 468.962L562.704 465.772C562.713 465.242 562.555 464.769 562.23 464.351C556.385 456.782 552.478 451.353 550.508 448.066C536.606 424.866 528.006 401.56 524.707 378.147C520.089 345.437 524.113 314.408 536.778 285.061C557.282 237.501 600.06 200.111 651.451 190.122C679.719 184.624 706.384 185.465 731.445 192.644C754.425 199.228 774.571 210.837 791.883 227.471C826.888 261.091 844.994 302.2 846.202 350.8C847.206 391.353 832.277 432.073 807.578 463.473C806.798 464.476 806.254 465.739 805.947 467.262C805.696 468.516 805.227 468.6 804.539 467.513C798.379 457.692 787.534 447.843 776.648 444.889C760.173 440.422 745.862 443.928 733.717 455.407C725.159 463.501 718.831 473.67 715.778 485.219C711.197 502.475 711.206 519.085 715.806 535.05C722.148 557.116 740.129 580.409 764.577 582.136C773.024 582.73 781.034 580.84 788.608 576.466C788.735 576.39 788.882 576.352 789.03 576.356C789.179 576.36 789.323 576.407 789.446 576.49C789.569 576.574 789.666 576.69 789.725 576.827C789.783 576.963 789.802 577.114 789.778 577.26C789.5 579.238 789.374 581.37 789.653 583.376C792.868 606.12 803.415 625.117 821.294 640.367C838.624 655.143 858.096 661.607 879.711 659.759C897.803 658.198 914.738 647.346 920.997 630.072C923.85 622.215 924.816 613.499 923.896 603.924C922.251 586.747 917.038 570.169 913.135 554.107C906.124 525.298 905.135 495.054 912.968 466.789C919.589 442.869 932.942 421.931 951.369 404.267C981.825 375.082 1022.8 363.296 1064.19 370.805C1109.53 379.038 1144.92 414.952 1146.94 461.885C1147.37 471.748 1146.25 480.863 1143.6 489.231C1134.76 517.009 1111.34 539.661 1081.82 542.879C1060.35 545.219 1042.53 538.565 1028.38 522.916C1015.93 509.152 1011.25 489.538 1018.94 472.222C1020.31 469.129 1022.12 466.468 1024.38 464.239C1031.7 457.005 1040.08 455.579 1049.51 459.962C1059.23 464.49 1058.81 472.654 1060.2 481.569C1060.62 484.225 1062.1 486.547 1064.65 488.535C1070.19 492.844 1076.15 493.619 1082.53 490.861C1094.83 485.54 1099.47 467.75 1096.48 455.853C1090.83 433.271 1067.27 419.048 1044.77 418.114C1025.16 417.306 1007.75 423.12 992.558 435.556C970.711 453.443 959.165 476.842 957.92 505.753C957.279 520.84 960.109 537.334 964.276 552.324C969.866 572.398 975.134 592.305 975.204 612.561C975.399 659.494 942.309 699.197 895.461 704.546C886.889 705.521 877.313 705.006 868.727 703.808C862.845 702.991 856.879 701.324 850.83 698.807C837.922 693.439 826.121 686.348 815.426 677.534C803.48 667.699 791.34 656.485 783.381 643.209C782.563 641.844 782.335 641.936 782.698 643.487C784.24 650.1 786.052 656.629 788.134 663.074C795.131 684.681 810.491 703.432 829.42 715.301C845.909 725.652 864.211 730.472 883.948 731.154C893.435 731.488 902.547 731.451 911.281 731.043C927.599 730.3 943.28 729.506 958.324 728.661C968.137 728.113 979.451 728.809 992.265 730.75C1015.28 734.214 1036.4 743.158 1055.63 757.581C1094.42 786.669 1114.87 825.967 1117 875.478C1118.26 904.742 1110.58 931.693 1093.98 956.332C1065.81 998.111 1020.32 1024.25 970.186 1028.34C969.846 1028.37 969.506 1028.29 969.216 1028.11C968.925 1027.93 968.699 1027.67 968.569 1027.35C961.098 1009.26 950.175 993.407 935.8 979.792C915.7 960.748 892.046 946.873 868.601 932.608C855.536 924.658 845.988 918.403 839.958 913.843C808.335 889.938 789.653 858.217 783.91 818.682C782.693 810.314 781.95 801.844 781.68 793.272C781.679 793.177 781.703 793.084 781.752 793.003C781.8 792.921 781.869 792.854 781.953 792.81C782.036 792.765 782.13 792.744 782.225 792.75C782.319 792.755 782.411 792.786 782.489 792.84C784.775 794.414 786.796 796.364 789.235 797.632C796.093 801.18 803.601 804.087 811.76 806.353C812.55 806.576 812.991 807.091 813.084 807.899C816.568 838.408 828.235 864.426 848.084 885.954C873.104 913.105 901.594 939.295 932.413 959.69C939.814 964.593 948.358 969.539 956.763 971.963C989.979 981.533 1020.48 972.074 1043.41 947.152C1057.94 931.345 1065.94 912.673 1067.41 891.136C1069.29 863.627 1061.48 839.499 1044.01 818.751C1021.22 791.698 991.731 779.062 955.537 780.845C933.802 781.913 912.164 782.889 890.624 783.771C879.975 784.198 869.693 783.933 859.778 782.977C832.054 780.274 803.55 768.447 783.297 748.707C773.642 739.299 765.665 729.334 759.364 718.811C758.928 718.087 758.77 718.143 758.891 718.979Z" fill="url(#paint3_linear_1111_2159)"/>
<path d="M574.176 497.924C580.755 483.715 597.955 478.309 610.862 487.796C631.366 502.87 631.589 553.731 602.471 560.265C586.943 563.733 575.109 551.335 571.318 537.334C567.536 523.348 568.489 510.211 574.176 497.924Z" fill="url(#paint4_linear_1111_2159)"/>
<path d="M797.04 502.284C803.424 520.882 801.556 548.813 781.29 558.398C765.985 565.628 751.489 555.598 747.001 541.012C742.754 527.202 743.344 513.582 748.771 500.153C754.179 486.765 769.107 478.602 782.837 485.414C789.593 488.767 794.327 494.39 797.04 502.284Z" fill="url(#paint5_linear_1111_2159)"/>
<path d="M287.179 708.085C300.909 692.691 290.733 672.45 271.679 669.998C263.065 668.897 255.232 672.575 249.057 678.245C239.43 687.058 234.528 698.087 234.352 711.331C234.045 734.693 248.89 755.798 265.184 771.094C265.36 771.261 265.468 771.487 265.486 771.73C265.504 771.972 265.431 772.212 265.281 772.403C252.486 788.619 243.203 806.436 239.049 826.761C239.003 826.975 238.9 827.008 238.742 826.859C200.62 790.249 172.004 738.802 186.946 684.555C190.087 673.151 195.756 662.183 203.951 651.651C221.18 629.487 247.956 617.52 276.112 620.237C295.644 622.122 311.753 630.75 324.437 646.12C331.304 654.451 335.267 663.501 336.327 673.271C338.097 689.543 331.755 705.87 316.785 712.654C305.745 717.66 295.895 716.429 287.235 708.962C287.173 708.91 287.123 708.845 287.087 708.773C287.051 708.7 287.03 708.621 287.025 708.539C287.019 708.458 287.03 708.375 287.057 708.297C287.083 708.219 287.125 708.147 287.179 708.085Z" fill="url(#paint6_linear_1111_2159)"/>
<path d="M1128.81 688.261C1118.19 670.639 1094.27 660.776 1079.51 680.279C1073.11 688.721 1075.66 699.991 1081.86 707.569C1082.53 708.386 1082.42 709.074 1081.53 709.631C1068.11 717.962 1056 717.497 1045.2 708.238C1031.68 696.661 1029.72 678.245 1035.67 662.503C1044.99 637.845 1069.05 622.09 1094.9 620.084C1118.27 618.282 1138.55 625.154 1155.71 640.701C1173.29 656.638 1183.37 677.019 1185.96 701.844C1187.82 719.879 1185.87 737.2 1180.1 753.806C1170.54 781.263 1152.29 806.13 1130.81 826.72C1130.79 826.745 1130.75 826.763 1130.72 826.771C1130.68 826.78 1130.64 826.778 1130.61 826.767C1130.57 826.755 1130.54 826.735 1130.52 826.707C1130.49 826.679 1130.47 826.645 1130.47 826.608C1129.76 822.41 1128.64 818.268 1127.11 814.182C1121.29 798.761 1113.28 785.359 1103.69 772.013C1103.37 771.568 1103.41 771.164 1103.83 770.801C1126.45 751.549 1146.34 717.349 1128.81 688.261Z" fill="url(#paint7_linear_1111_2159)"/>
<path d="M347.547 848.926C348.291 855.594 350.888 862.42 355.339 869.404C363.34 881.942 375.968 887.472 390.423 888.977C414.118 891.443 434.092 882.206 448.672 862.383C448.714 862.326 448.77 862.28 448.833 862.249C448.897 862.218 448.967 862.202 449.038 862.204C449.109 862.205 449.178 862.223 449.241 862.257C449.303 862.29 449.357 862.338 449.397 862.397C456.942 873.476 466.89 881.018 479.24 885.02C479.366 885.062 479.481 885.135 479.572 885.232C479.663 885.329 479.728 885.448 479.762 885.577C479.795 885.706 479.795 885.841 479.763 885.97C479.73 886.099 479.665 886.218 479.574 886.316C465.431 901.268 450.006 914.4 433.298 925.712C418.235 935.919 401.639 940.275 383.509 938.779C374.783 938.055 367.191 935.724 360.733 931.786C333.414 915.097 328.479 886.093 338.585 857.437C340.397 852.325 343.338 847.811 345.847 842.963C346.395 841.895 346.739 841.96 346.878 843.158C347.111 845.118 347.334 847.04 347.547 848.926Z" fill="url(#paint8_linear_1111_2159)"/>
<path d="M1022.68 843.381C1043.8 876.871 1038.1 924.528 995.081 936.578C970.172 943.544 947.341 936.035 927.478 920.293C918.279 912.993 909.851 905.791 902.194 898.686C897.733 894.535 893.705 890.165 890.109 885.578C889.839 885.243 889.909 885.016 890.318 884.895C900.14 881.867 908.684 876.295 915.951 868.178C917.275 866.687 918.139 864.793 919.185 863.079C919.594 862.42 920.016 862.411 920.453 863.051C934.894 884.003 958.101 892.557 983.358 888.085C1007.67 883.78 1019.99 867.022 1021.3 843.729C1021.38 842.178 1021.84 842.062 1022.68 843.381Z" fill="url(#paint9_linear_1111_2159)"/>
<path d="M683.678 1115.06C677.73 1124.19 671.639 1130.78 665.404 1134.84C659.327 1138.8 652.455 1143.3 645.792 1145.65C644.937 1145.96 644.84 1145.8 645.5 1145.18C658.23 1133.11 666.617 1118.64 670.659 1101.74C678.074 1070.83 673.098 1033.91 653.751 1007.79C646.382 997.837 637.229 988.824 626.292 980.753C626.231 980.707 626.18 980.648 626.145 980.58C626.11 980.511 626.091 980.436 626.09 980.359C626.089 980.283 626.105 980.207 626.137 980.137C626.17 980.068 626.218 980.007 626.278 979.959C643.715 966.126 658.17 950.314 668.094 929.738C675.426 914.544 680.736 898.798 684.026 882.499C684.314 881.096 684.63 881.092 684.974 882.485C686.591 889.07 688.458 895.961 690.577 903.158C699.907 934.791 717.418 960.344 743.112 979.82C743.521 980.126 743.516 980.428 743.098 980.725C728.184 991.238 716.865 1003.56 709.143 1017.68C694.489 1044.46 690.888 1072.73 698.341 1102.51C702.118 1117.55 711.053 1133.8 723.375 1144.76C724.239 1145.53 724.137 1145.7 723.068 1145.28C707.048 1138.94 694.229 1128.87 684.611 1115.05C684.295 1114.59 683.984 1114.6 683.678 1115.06Z" fill="url(#paint10_linear_1111_2159)"/>
<path d="M774.822 1033.68C750.248 1056.51 736.324 1093.51 745.635 1126.82C745.904 1127.77 745.7 1127.89 745.021 1127.17C732.384 1113.6 725.363 1097.82 723.96 1079.83C721.214 1044.6 740.477 1015.3 771.686 999.587C772.097 999.378 772.555 999.276 773.017 999.291C773.48 999.305 773.933 999.436 774.334 999.671L800.121 1014.77C800.169 1014.8 800.208 1014.84 800.236 1014.89C800.264 1014.94 800.278 1015 800.278 1015.05C800.278 1015.11 800.264 1015.16 800.236 1015.21C800.208 1015.25 800.169 1015.29 800.121 1015.32C790.912 1020.44 782.479 1026.56 774.822 1033.68Z" fill="url(#paint11_linear_1111_2159)"/>
<path d="M617.567 1066.12C608.841 1046.1 591.78 1029.69 573.339 1017.46C571.936 1016.53 570.477 1015.83 568.962 1015.36C568.868 1015.33 568.784 1015.28 568.721 1015.2C568.658 1015.12 568.619 1015.03 568.61 1014.93C568.601 1014.84 568.622 1014.74 568.67 1014.65C568.718 1014.56 568.791 1014.5 568.879 1014.45C577.502 1009.86 586.112 1005 594.707 999.866C596.296 998.919 598.15 999.574 599.614 1000.38C631.171 1017.95 649.862 1048.74 644.426 1085.21C642.071 1101.03 635.338 1114.75 625.093 1127.15C623.709 1128.84 623.337 1128.64 623.978 1126.55C629.749 1107.9 625.219 1083.7 617.567 1066.12Z" fill="url(#paint12_linear_1111_2159)"/>
<path d="M1119.39 403.409L1087.99 896.308L787.842 250L1119.39 403.409ZM911.491 1040.75L684.695 1170.14L457.895 1040.75L504.023 928.977H865.363L911.491 1040.75ZM281.072 896.308L250 403.409L581.544 250L281.072 896.308Z" fill="url(#paint13_radial_1111_2159)"/>
<path d="M574.176 497.924C580.755 483.715 597.955 478.309 610.862 487.796C631.366 502.87 631.589 553.731 602.471 560.265C586.943 563.733 575.109 551.335 571.318 537.334C567.536 523.348 568.489 510.211 574.176 497.924Z" fill="url(#paint14_linear_1111_2159)"/>
<path d="M797.04 502.284C803.424 520.882 801.556 548.813 781.29 558.398C765.985 565.628 751.489 555.598 747.001 541.012C742.754 527.202 743.344 513.582 748.771 500.153C754.179 486.765 769.107 478.602 782.837 485.414C789.593 488.767 794.327 494.39 797.04 502.284Z" fill="url(#paint15_linear_1111_2159)"/>
<path d="M287.179 708.085C300.909 692.691 290.733 672.45 271.679 669.998C263.065 668.897 255.232 672.575 249.057 678.245C239.43 687.058 234.528 698.087 234.352 711.331C234.045 734.693 248.89 755.798 265.184 771.094C265.36 771.261 265.468 771.487 265.486 771.73C265.504 771.972 265.431 772.212 265.281 772.403C252.486 788.619 243.203 806.436 239.049 826.761C239.003 826.975 238.9 827.008 238.742 826.859C200.62 790.249 172.004 738.802 186.946 684.555C190.087 673.151 195.756 662.183 203.951 651.651C221.18 629.487 247.956 617.52 276.112 620.237C295.644 622.122 311.753 630.75 324.437 646.12C331.304 654.451 335.267 663.501 336.327 673.271C338.097 689.543 331.755 705.87 316.785 712.654C305.745 717.66 295.895 716.429 287.235 708.962C287.173 708.91 287.123 708.845 287.087 708.773C287.051 708.7 287.03 708.621 287.025 708.539C287.019 708.458 287.03 708.375 287.057 708.297C287.083 708.219 287.125 708.147 287.179 708.085Z" fill="url(#paint16_linear_1111_2159)"/>
<path d="M347.547 848.926C348.291 855.594 350.888 862.42 355.339 869.404C363.34 881.942 375.968 887.472 390.423 888.977C414.118 891.443 434.092 882.206 448.672 862.383C448.714 862.326 448.77 862.28 448.833 862.249C448.897 862.218 448.967 862.202 449.038 862.204C449.109 862.205 449.178 862.223 449.241 862.257C449.303 862.29 449.357 862.338 449.397 862.397C456.942 873.476 466.89 881.018 479.24 885.02C479.366 885.062 479.481 885.135 479.572 885.232C479.663 885.329 479.728 885.448 479.762 885.577C479.795 885.706 479.795 885.841 479.763 885.97C479.73 886.099 479.665 886.218 479.574 886.316C465.431 901.268 450.006 914.4 433.298 925.712C418.235 935.919 401.639 940.275 383.509 938.779C374.783 938.055 367.191 935.724 360.733 931.786C333.414 915.097 328.479 886.093 338.585 857.437C340.397 852.325 343.338 847.811 345.847 842.963C346.395 841.895 346.739 841.96 346.878 843.158C347.111 845.118 347.334 847.04 347.547 848.926Z" fill="url(#paint17_linear_1111_2159)"/>
<path d="M1022.68 843.381C1043.8 876.871 1038.1 924.528 995.081 936.578C970.172 943.544 947.341 936.035 927.478 920.293C918.279 912.993 909.851 905.791 902.194 898.686C897.733 894.535 893.705 890.165 890.109 885.578C889.839 885.243 889.909 885.016 890.318 884.895C900.14 881.867 908.684 876.295 915.951 868.178C917.275 866.687 918.139 864.793 919.185 863.079C919.594 862.42 920.016 862.411 920.453 863.051C934.894 884.003 958.101 892.557 983.358 888.085C1007.67 883.78 1019.99 867.022 1021.3 843.729C1021.38 842.178 1021.84 842.062 1022.68 843.381Z" fill="url(#paint18_linear_1111_2159)"/>
<path d="M1079.51 680.279C1073.11 688.721 1075.66 699.991 1081.86 707.569C1082.53 708.386 1082.42 709.074 1081.53 709.631C1068.11 717.962 1056 717.497 1045.2 708.238C1031.68 696.661 1029.72 678.245 1035.67 662.503C1044.99 637.845 1069.05 622.09 1094.9 620.084C1098.5 619.805 1102.04 619.734 1105.5 619.869L1102.5 669.762C1094.34 668.777 1086.03 671.661 1079.51 680.279Z" fill="url(#paint19_linear_1111_2159)"/>
<path d="M1143.6 489.231C1146.25 480.863 1147.37 471.748 1146.94 461.885C1146.77 457.868 1146.35 453.931 1145.7 450.086C1146.86 462.172 1094.63 485.626 1082.53 490.861C1076.15 493.619 1070.19 492.844 1064.65 488.535C1062.1 486.547 1060.62 484.225 1060.2 481.569C1058.81 472.654 1059.23 464.49 1049.51 459.962C1040.08 455.579 1031.7 457.005 1024.38 464.239C1022.12 466.468 1020.31 469.129 1018.94 472.222C1011.25 489.538 1015.93 509.152 1028.38 522.916C1042.53 538.565 1060.35 545.219 1081.82 542.879C1111.34 539.661 1134.76 517.009 1143.6 489.231Z" fill="url(#paint20_linear_1111_2159)"/>
<path fill-rule="evenodd" clip-rule="evenodd" d="M759.155 726.125C759.309 723.771 759.253 721.347 758.891 718.979C758.77 718.143 758.928 718.087 759.364 718.811C765.665 729.334 773.642 739.299 783.297 748.707C803.55 768.447 832.054 780.274 859.778 782.977C869.693 783.933 879.975 784.198 890.624 783.771C912.164 782.889 933.802 781.913 955.537 780.845C991.731 779.062 1021.22 791.698 1044.01 818.751C1061.48 839.499 1069.29 863.627 1067.41 891.136C1065.94 912.673 1057.94 931.345 1043.41 947.152C1020.48 972.074 989.979 981.533 956.763 971.963C948.358 969.539 939.814 964.593 932.413 959.69C901.594 939.295 873.104 913.105 848.084 885.954C828.235 864.426 816.568 838.408 813.084 807.899C812.991 807.091 812.55 806.576 811.76 806.353C803.601 804.087 796.093 801.18 789.235 797.632C787.689 796.829 786.311 795.751 784.927 794.669C784.127 794.043 783.326 793.416 782.489 792.84C782.411 792.786 782.319 792.755 782.225 792.75C782.13 792.744 782.036 792.765 781.953 792.81C781.869 792.854 781.8 792.921 781.752 793.003C781.703 793.084 781.679 793.177 781.68 793.272C781.95 801.844 782.693 810.314 783.91 818.682C789.653 858.217 808.335 889.938 839.958 913.843C845.988 918.403 855.536 924.658 868.601 932.608C870.147 933.548 871.693 934.487 873.24 935.426C895.149 948.725 917.025 962.004 935.8 979.792C950.175 993.407 961.098 1009.26 968.569 1027.35C968.699 1027.67 968.925 1027.93 969.216 1028.11C969.506 1028.29 969.846 1028.37 970.186 1028.34C1020.32 1024.25 1065.81 998.111 1093.98 956.332C1110.58 931.693 1118.26 904.742 1117 875.478C1114.87 825.967 1094.42 786.669 1055.63 757.581C1036.4 743.158 1015.28 734.214 992.265 730.75C979.451 728.809 968.137 728.113 958.324 728.661C943.28 729.506 927.599 730.3 911.281 731.043C902.547 731.451 893.435 731.488 883.948 731.154C864.211 730.472 845.909 725.652 829.42 715.301C810.491 703.432 795.131 684.681 788.134 663.074C786.052 656.629 784.24 650.1 782.698 643.487C782.335 641.936 782.563 641.844 783.381 643.209C791.34 656.485 803.48 667.699 815.426 677.534C826.121 686.348 837.922 693.439 850.83 698.807C856.879 701.324 862.845 702.991 868.727 703.808C877.313 705.006 886.889 705.521 895.461 704.546C931.707 700.407 959.717 675.705 970.449 643L907.477 508.5C907.474 523.771 909.491 539.133 913.135 554.107C914.072 557.961 915.084 561.845 916.104 565.76C919.335 578.16 922.646 590.869 923.896 603.924C924.816 613.499 923.85 622.215 920.997 630.072C914.738 647.346 897.803 658.198 879.711 659.759C858.096 661.607 838.624 655.143 821.294 640.367C803.415 625.117 792.868 606.12 789.653 583.376C789.374 581.37 789.5 579.238 789.778 577.26C789.802 577.114 789.783 576.963 789.725 576.827C789.666 576.69 789.569 576.574 789.446 576.49C789.323 576.407 789.179 576.36 789.03 576.356C788.882 576.352 788.735 576.39 788.608 576.466C781.034 580.84 773.024 582.73 764.577 582.136C740.129 580.409 722.148 557.116 715.806 535.05C711.206 519.085 711.197 502.475 715.778 485.219C718.831 473.67 725.159 463.501 733.717 455.407C745.862 443.928 760.173 440.422 776.648 444.889C787.534 447.843 798.379 457.692 804.539 467.513C805.227 468.6 805.696 468.516 805.947 467.262C806.254 465.739 806.798 464.476 807.578 463.473C832.277 432.073 847.206 391.353 846.202 350.8C844.994 302.2 826.888 261.091 791.883 227.471C774.571 210.837 754.425 199.228 731.445 192.644C706.384 185.465 679.719 184.624 651.451 190.122C600.06 200.111 557.282 237.501 536.778 285.061C524.113 314.408 520.089 345.437 524.707 378.147C528.006 401.56 536.606 424.866 550.508 448.066C552.478 451.353 556.385 456.782 562.23 464.351C562.555 464.769 562.713 465.242 562.704 465.772L562.676 468.962C562.667 469.983 562.932 470.062 563.471 469.199C569.659 459.433 578.692 449.654 589.62 445.739C614.068 436.991 636.718 450.086 648.12 472.152C652.125 479.925 654.769 488.753 656.051 498.635C659.745 527.304 650.49 556.266 626.961 573.652C613.622 583.501 594.317 585.605 580.1 576.508C580.015 576.454 579.918 576.424 579.817 576.422C579.717 576.42 579.619 576.445 579.532 576.496C579.446 576.546 579.375 576.62 579.327 576.708C579.28 576.796 579.258 576.896 579.263 576.995C580.629 604.606 562.258 630.657 540.89 645.716C525.381 656.638 508.46 661.324 490.126 659.773C480.833 658.983 473.055 656.578 466.792 652.556C435.509 632.454 445.075 596.363 453 566.461L453.001 566.457L453.008 566.431C453.714 563.769 454.407 561.155 455.056 558.607C459.257 542.135 461.628 525.012 461.586 508L398.666 643.5C402.175 654.059 407.656 663.755 415.108 672.589C430.998 691.437 451.446 703.39 475.936 704.63C490.395 705.364 503.307 703.766 514.672 699.838C539.636 691.214 559.805 674.86 577.702 654.827C580.815 651.344 583.254 647.695 585.02 643.877C585.094 643.72 585.21 643.673 585.368 643.738C585.582 643.812 585.656 643.961 585.591 644.184C584.188 648.79 582.85 653.383 581.577 657.962C570.189 699.308 536.29 726.975 493.568 730.639C485.187 731.363 476.475 731.554 467.434 731.21C449.806 730.541 433.256 729.789 417.784 728.953C410.146 728.535 402.489 728.526 394.813 728.925C320.576 732.784 258.493 790.597 252.82 865.74C251.217 887.138 252.653 908.243 260.682 928.512C266.006 941.951 273.542 954.753 283.29 966.92C305.546 994.67 334.004 1013.48 368.664 1023.35C378.84 1026.25 389.503 1027.48 399.859 1028.24C400.203 1028.27 400.44 1028.12 400.57 1027.8C407.107 1011.54 416.585 996.481 429.451 983.776C441.754 971.628 455.126 961.041 469.566 952.014C482.808 943.748 495.813 935.603 508.58 927.579C533.489 911.921 556.404 892.501 570.022 865.782C581.577 843.13 586.553 818.96 587.71 793.787C587.714 793.732 587.702 793.676 587.676 793.627C587.65 793.577 587.612 793.536 587.565 793.508C587.518 793.48 587.465 793.467 587.411 793.469L587.401 793.47L587.392 793.471C587.379 793.473 587.366 793.475 587.353 793.479C587.34 793.482 587.328 793.487 587.316 793.492C587.298 793.5 587.28 793.51 587.264 793.523C577.869 799.782 567.708 804.026 556.78 806.255C556.288 806.357 556.014 806.655 555.958 807.147C552.817 835.965 541.954 861.101 523.369 882.555C501.829 907.435 477.135 930.518 449.285 951.805C440.792 958.287 432.722 963.428 425.074 967.226C399.246 980.07 364.399 978.552 340.02 960.637C319.391 945.48 306.977 925.178 302.776 899.731C296.755 863.302 311.655 828.001 339.867 804.486C359.809 787.862 383.486 780.019 410.898 780.957C432.252 781.7 454.164 782.619 476.633 783.715C487.124 784.226 497.629 783.943 508.148 782.865C550.698 778.5 583.501 758.923 606.555 724.133C607.456 722.768 608.186 721.319 608.743 719.787C609.227 718.477 609.496 718.519 609.552 719.912C609.868 727.425 610.365 735.05 611.043 742.786C611.681 749.979 612.069 757.003 612.457 764.044L612.458 764.046L612.458 764.056C612.604 766.707 612.751 769.361 612.911 772.027C614.212 793.796 613.334 814.604 610.277 834.451C604.771 870.24 586.205 901.626 559.484 924.598C539.036 942.192 515.689 954.8 491.519 967.672C480.48 973.551 469.455 980.293 459.419 987.593C440.295 1001.49 425.645 1018.51 415.47 1038.65C408.231 1052.99 404.575 1068.29 404.501 1084.57C404.436 1097.48 406.354 1108.89 410.257 1118.79C420.014 1143.53 436.527 1161.97 459.795 1174.1C490.265 1189.98 527.537 1189.56 556 1170.28C574.259 1157.93 586.902 1138.51 590.33 1116.73C590.343 1116.65 590.356 1116.57 590.369 1116.49L590.387 1116.37L536.179 1085.5C541.297 1091.76 543.42 1100.39 541.796 1108.79C538.994 1123.32 527.314 1131.4 512.887 1131.99C495.283 1132.71 479.588 1125.26 470.848 1109.93C454.178 1080.69 469.385 1047.26 492.579 1026.18C501.23 1018.32 511.944 1011.09 524.721 1004.49C555.219 988.749 585.508 972.116 609.44 947.068C633.601 921.788 649.797 891.986 658.03 857.66C661.199 844.435 663.285 832.473 664.289 821.774C665.918 804.32 665.876 786.348 665.834 768.098C665.817 760.741 665.8 753.339 665.892 745.907C666.031 734.614 666.612 725.35 667.634 718.115C669.167 707.202 671.425 696.49 674.408 685.976C677.726 674.265 680.918 662.522 683.984 650.745C684.133 650.169 684.183 649.563 684.232 648.958C684.29 648.26 684.347 647.563 684.556 646.914C684.844 646.06 685.039 646.083 685.141 646.984C685.652 651.08 686.447 655.064 687.525 658.937C690.888 671.029 694.053 682.698 697.017 693.945C701.078 709.371 703.317 725.35 703.735 741.881C704.051 754.79 704.172 770.421 704.098 788.772C704 809.25 705.519 829.13 709.06 848.466C717.897 896.625 744.548 940.34 784.956 969.455C803.829 983.052 823.914 993.542 845.979 1005.06C867.166 1016.14 885.049 1030.53 896.632 1051.34C908.076 1071.9 909.804 1096.87 894.444 1116.13C888.766 1123.25 881.49 1127.94 872.616 1130.2C861.061 1133.14 848.126 1133.09 838.396 1126.34C827.315 1118.64 823.621 1102.63 829.378 1090.53C830.157 1088.89 831.08 1087.38 832.149 1086L778.835 1116.5C781.987 1138.19 792.656 1155.65 810.84 1168.86C821.229 1176.41 831.576 1181.16 841.881 1183.11C871.115 1188.65 897.626 1183.09 921.415 1166.44C943.41 1151.04 957.033 1130.52 962.283 1104.89C968.212 1075.89 962.413 1048.67 944.888 1023.24C932.445 1005.19 915.733 989.836 894.75 977.187C885.957 971.883 876.896 966.934 867.819 961.976L867.817 961.975C846.494 950.328 825.083 938.633 806.839 922.188C780.579 898.524 764.712 869.678 759.239 835.649C754.653 807.119 755.294 777.446 757.538 748.679C758.105 741.454 758.644 733.936 759.155 726.125ZM237.125 511.646C224.228 493.545 219.476 472.97 223.131 451.047C221.866 464.212 298.344 496.587 306.916 486.515C308.338 484.852 309.184 482.786 309.453 480.315C309.491 479.953 309.529 479.585 309.567 479.213L309.568 479.21C310.057 474.444 310.621 468.959 313.426 465.187C317.728 459.401 323.787 456.991 331.602 457.956C349.819 460.185 355.98 480.58 353.764 496.322C352.259 507.021 345.972 518.556 338.097 526.204C324.697 539.224 308.055 544.829 288.169 543.018C267.777 541.165 248.959 528.251 237.125 511.646ZM520 1076.17L511.064 1071C511.282 1071.54 511.532 1072.07 511.814 1072.6C512.39 1073.7 513.301 1074.4 514.546 1074.72C516.387 1075.18 518.205 1075.67 520 1076.17Z" fill="url(#paint21_linear_1111_2159)"/>
<path d="M563.661 468.657C576.067 442.245 608.502 432.199 632.842 449.832C671.506 477.849 671.927 572.387 617.019 584.532C587.738 590.979 565.422 567.934 558.273 541.91C551.141 515.913 552.937 491.495 563.661 468.657Z" fill="white"/>
<path d="M811.85 475.231C823.888 509.8 820.366 561.716 782.148 579.531C753.288 592.97 725.952 574.327 717.488 547.216C709.48 521.547 710.593 496.231 720.827 471.27C731.025 446.386 759.176 431.212 785.066 443.874C797.805 450.106 806.733 460.558 811.85 475.231Z" fill="white"/>
<path d="M574.176 497.924C580.755 483.715 597.955 478.31 610.863 487.796C631.366 502.87 631.589 553.731 602.471 560.265C586.944 563.733 575.11 551.335 571.319 537.335C567.537 523.348 568.489 510.211 574.176 497.924Z" fill="black"/>
<path d="M797.041 502.284C803.425 520.882 801.557 548.814 781.29 558.398C765.986 565.628 751.489 555.598 747.001 541.012C742.755 527.202 743.345 513.582 748.771 500.153C754.18 486.766 769.108 478.602 782.837 485.414C789.593 488.767 794.327 494.39 797.041 502.284Z" fill="black"/>
<path d="M705.233 567.005C716.899 579.464 703.292 633.489 703.261 623.863C703.155 590.431 696.675 582.661 705.233 567.005Z" fill="#3D000E"/>
<path d="M667.138 570.437C678.804 582.895 667.167 642.146 667.136 632.52C667.03 599.088 658.58 586.092 667.138 570.437Z" fill="#3D000E"/>
<path d="M685.815 577.75C697.481 590.208 683.874 644.234 683.843 634.607C683.737 601.175 677.257 593.405 685.815 577.75Z" fill="#3D000E"/>
<defs>
<radialGradient id="paint0_radial_1111_2159" cx="0" cy="0" r="1" gradientUnits="userSpaceOnUse" gradientTransform="translate(1373 4.24087e-05) rotate(133.976) scale(1977.39 1902.85)">
<stop stop-color="#3B6F8C"/>
<stop offset="0.520833" stop-color="#103055"/>
<stop offset="1" stop-color="#09112D"/>
</radialGradient>
<radialGradient id="paint1_radial_1111_2159" cx="0" cy="0" r="1" gradientUnits="userSpaceOnUse" gradientTransform="translate(1237.5 80.9999) rotate(132.625) scale(1783.09 1715.77)">
<stop stop-color="#E3F1F5"/>
<stop offset="0.460299" stop-color="#031326"/>
<stop offset="1" stop-color="#081235"/>
</radialGradient>
<radialGradient id="paint2_radial_1111_2159" cx="0" cy="0" r="1" gradientUnits="userSpaceOnUse" gradientTransform="translate(1323 50) rotate(133.897) scale(1835.99 1766.6)">
<stop stop-color="#112E3E"/>
<stop offset="0.520833" stop-color="#031326"/>
<stop offset="1" stop-color="#081235"/>
</radialGradient>
<linearGradient id="paint3_linear_1111_2159" x1="182.91" y1="1002.4" x2="1372.03" y2="818.591" gradientUnits="userSpaceOnUse">
<stop stop-color="#75011D"/>
<stop offset="0.526" stop-color="#A30024"/>
<stop offset="1" stop-color="#DD0031"/>
</linearGradient>
<linearGradient id="paint4_linear_1111_2159" x1="182.91" y1="1002.4" x2="1372.03" y2="818.591" gradientUnits="userSpaceOnUse">
<stop stop-color="#75011D"/>
<stop offset="0.526" stop-color="#A30024"/>
<stop offset="1" stop-color="#DD0031"/>
</linearGradient>
<linearGradient id="paint5_linear_1111_2159" x1="182.91" y1="1002.4" x2="1372.03" y2="818.591" gradientUnits="userSpaceOnUse">
<stop stop-color="#75011D"/>
<stop offset="0.526" stop-color="#A30024"/>
<stop offset="1" stop-color="#DD0031"/>
</linearGradient>
<linearGradient id="paint6_linear_1111_2159" x1="182.91" y1="1002.4" x2="1372.03" y2="818.591" gradientUnits="userSpaceOnUse">
<stop stop-color="#75011D"/>
<stop offset="0.526" stop-color="#A30024"/>
<stop offset="1" stop-color="#DD0031"/>
</linearGradient>
<linearGradient id="paint7_linear_1111_2159" x1="182.91" y1="1002.4" x2="1372.03" y2="818.591" gradientUnits="userSpaceOnUse">
<stop stop-color="#75011D"/>
<stop offset="0.526" stop-color="#A30024"/>
<stop offset="1" stop-color="#DD0031"/>
</linearGradient>
<linearGradient id="paint8_linear_1111_2159" x1="182.91" y1="1002.4" x2="1372.03" y2="818.591" gradientUnits="userSpaceOnUse">
<stop stop-color="#75011D"/>
<stop offset="0.526" stop-color="#A30024"/>
<stop offset="1" stop-color="#DD0031"/>
</linearGradient>
<linearGradient id="paint9_linear_1111_2159" x1="182.91" y1="1002.4" x2="1372.03" y2="818.591" gradientUnits="userSpaceOnUse">
<stop stop-color="#75011D"/>
<stop offset="0.526" stop-color="#A30024"/>
<stop offset="1" stop-color="#DD0031"/>
</linearGradient>
<linearGradient id="paint10_linear_1111_2159" x1="182.91" y1="1002.4" x2="1372.03" y2="818.591" gradientUnits="userSpaceOnUse">
<stop stop-color="#75011D"/>
<stop offset="0.526" stop-color="#A30024"/>
<stop offset="1" stop-color="#DD0031"/>
</linearGradient>
<linearGradient id="paint11_linear_1111_2159" x1="182.91" y1="1002.4" x2="1372.03" y2="818.591" gradientUnits="userSpaceOnUse">
<stop stop-color="#75011D"/>
<stop offset="0.526" stop-color="#A30024"/>
<stop offset="1" stop-color="#DD0031"/>
</linearGradient>
<linearGradient id="paint12_linear_1111_2159" x1="182.91" y1="1002.4" x2="1372.03" y2="818.591" gradientUnits="userSpaceOnUse">
<stop stop-color="#75011D"/>
<stop offset="0.526" stop-color="#A30024"/>
<stop offset="1" stop-color="#DD0031"/>
</linearGradient>
<radialGradient id="paint13_radial_1111_2159" cx="0" cy="0" r="1" gradientUnits="userSpaceOnUse" gradientTransform="translate(299 410) rotate(45) scale(987.828 933.337)">
<stop stop-color="#BEDBF6"/>
<stop offset="1" stop-color="white"/>
</radialGradient>
<linearGradient id="paint14_linear_1111_2159" x1="182.91" y1="1002.4" x2="1327.17" y2="832.505" gradientUnits="userSpaceOnUse">
<stop stop-color="#75011D"/>
<stop offset="0.526" stop-color="#A30024"/>
<stop offset="1" stop-color="#DD0031"/>
</linearGradient>
<linearGradient id="paint15_linear_1111_2159" x1="182.91" y1="1002.4" x2="1327.17" y2="832.505" gradientUnits="userSpaceOnUse">
<stop stop-color="#75011D"/>
<stop offset="0.526" stop-color="#A30024"/>
<stop offset="1" stop-color="#DD0031"/>
</linearGradient>
<linearGradient id="paint16_linear_1111_2159" x1="182.91" y1="1002.4" x2="1327.17" y2="832.505" gradientUnits="userSpaceOnUse">
<stop stop-color="#75011D"/>
<stop offset="0.526" stop-color="#A30024"/>
<stop offset="1" stop-color="#DD0031"/>
</linearGradient>
<linearGradient id="paint17_linear_1111_2159" x1="182.91" y1="1002.4" x2="1327.17" y2="832.505" gradientUnits="userSpaceOnUse">
<stop stop-color="#75011D"/>
<stop offset="0.526" stop-color="#A30024"/>
<stop offset="1" stop-color="#DD0031"/>
</linearGradient>
<linearGradient id="paint18_linear_1111_2159" x1="182.91" y1="1002.4" x2="1327.17" y2="832.505" gradientUnits="userSpaceOnUse">
<stop stop-color="#75011D"/>
<stop offset="0.526" stop-color="#A30024"/>
<stop offset="1" stop-color="#DD0031"/>
</linearGradient>
<linearGradient id="paint19_linear_1111_2159" x1="182.91" y1="1002.4" x2="1327.17" y2="832.505" gradientUnits="userSpaceOnUse">
<stop stop-color="#75011D"/>
<stop offset="0.526" stop-color="#A30024"/>
<stop offset="1" stop-color="#DD0031"/>
</linearGradient>
<linearGradient id="paint20_linear_1111_2159" x1="182.91" y1="1002.4" x2="1327.17" y2="832.505" gradientUnits="userSpaceOnUse">
<stop stop-color="#75011D"/>
<stop offset="0.526" stop-color="#A30024"/>
<stop offset="1" stop-color="#DD0031"/>
</linearGradient>
<linearGradient id="paint21_linear_1111_2159" x1="182.91" y1="1002.4" x2="1327.17" y2="832.505" gradientUnits="userSpaceOnUse">
<stop stop-color="#75011D"/>
<stop offset="0.526" stop-color="#A30024"/>
<stop offset="1" stop-color="#DD0031"/>
</linearGradient>
</defs>
</svg>
