<svg width="1273" height="1323" viewBox="0 0 1273 1323" fill="none" xmlns="http://www.w3.org/2000/svg">
<path d="M708.891 668.979C709.253 671.347 709.309 673.771 709.155 676.125C708.644 683.936 708.105 691.454 707.538 698.679C705.294 727.446 704.653 757.119 709.239 785.649C714.712 819.678 730.579 848.524 756.839 872.188C782.849 895.633 815.298 909.425 844.75 927.187C865.733 939.836 882.445 955.188 894.888 973.242C912.413 998.671 918.212 1025.89 912.283 1054.89C907.033 1080.52 893.41 1101.04 871.415 1116.44C847.626 1133.09 821.115 1138.65 791.881 1133.11C781.576 1131.16 771.229 1126.41 760.84 1118.86C741.288 1104.65 730.426 1085.54 728.251 1061.54C725.77 1034.19 738.636 1007.62 764.645 997.468C779.727 991.575 799.701 992.453 807.785 1008.28C810.085 1012.79 810.684 1022.32 804.523 1024.44C802.107 1025.27 799.58 1026.05 796.941 1026.76C788.513 1029.03 782.658 1033.62 779.378 1040.53C773.621 1052.63 777.315 1068.64 788.396 1076.34C798.126 1083.09 811.061 1083.14 822.616 1080.2C831.49 1077.94 838.766 1073.25 844.444 1066.13C859.804 1046.87 858.076 1021.9 846.632 1001.34C835.049 980.528 817.166 966.137 795.979 955.062C773.914 943.542 753.829 933.052 734.956 919.455C694.548 890.34 667.897 846.625 659.06 798.466C655.519 779.13 654 759.25 654.098 738.772C654.172 720.421 654.051 704.79 653.735 691.881C653.317 675.35 651.078 659.371 647.017 643.945C644.053 632.698 640.888 621.029 637.525 608.937C636.447 605.064 635.652 601.08 635.141 596.984C635.039 596.083 634.844 596.06 634.556 596.914C634.165 598.126 634.305 599.506 633.984 600.745C630.918 612.522 627.726 624.265 624.408 635.976C621.425 646.49 619.167 657.202 617.634 668.115C616.612 675.35 616.031 684.614 615.892 695.907C615.571 721.776 616.575 747.284 614.289 771.774C613.285 782.473 611.199 794.435 608.03 807.66C599.797 841.986 583.601 871.788 559.44 897.068C535.508 922.116 505.219 938.749 474.721 954.491C461.944 961.085 451.23 968.315 442.579 976.182C419.385 997.259 404.178 1030.69 420.848 1059.93C429.588 1075.26 445.283 1082.71 462.887 1081.99C477.314 1081.4 488.994 1073.32 491.796 1058.79C494.375 1045.45 487.503 1031.54 474.192 1027.42C471.051 1026.44 467.836 1025.54 464.546 1024.72C463.301 1024.4 462.39 1023.7 461.814 1022.6C459.305 1017.89 459.361 1012.94 461.981 1007.76C469.759 992.397 491.42 991.519 505.428 997.886C532.79 1010.31 544.944 1037.39 540.33 1066.73C536.902 1088.51 524.259 1107.93 506 1120.28C477.537 1139.56 440.265 1139.98 409.795 1124.1C386.527 1111.97 370.014 1093.53 360.257 1068.79C356.354 1058.89 354.436 1047.48 354.501 1034.57C354.575 1018.29 358.231 1002.99 365.47 988.65C375.645 968.506 390.295 951.487 409.419 937.593C419.455 930.293 430.48 923.551 441.519 917.672C465.689 904.8 489.036 892.192 509.484 874.598C536.205 851.626 554.771 820.24 560.277 784.451C563.334 764.604 564.212 743.796 562.911 722.027C562.326 712.276 561.921 702.691 561.043 692.786C560.365 685.05 559.868 677.425 559.552 669.912C559.496 668.519 559.227 668.477 558.743 669.787C558.186 671.319 557.456 672.768 556.555 674.133C533.501 708.923 500.698 728.5 458.148 732.865C447.629 733.943 437.124 734.226 426.633 733.715C404.164 732.619 382.252 731.7 360.898 730.957C333.486 730.019 309.809 737.862 289.867 754.486C261.655 778.001 246.755 813.302 252.776 849.731C256.977 875.178 269.391 895.48 290.02 910.637C314.399 928.552 349.246 930.07 375.074 917.226C382.722 913.428 390.792 908.287 399.285 901.805C427.135 880.518 451.829 857.435 473.369 832.555C491.954 811.101 502.817 785.965 505.958 757.147C506.014 756.655 506.288 756.357 506.78 756.255C517.708 754.026 527.869 749.782 537.264 743.523C537.307 743.49 537.358 743.472 537.411 743.469C537.465 743.467 537.518 743.48 537.565 743.508C537.612 743.536 537.65 743.577 537.676 743.627C537.702 743.676 537.714 743.732 537.71 743.787C536.553 768.96 531.577 793.13 520.022 815.782C506.404 842.501 483.489 861.921 458.58 877.579C445.813 885.603 432.808 893.748 419.566 902.014C405.126 911.041 391.754 921.628 379.451 933.776C366.585 946.481 357.107 961.54 350.57 977.797C350.44 978.123 350.203 978.271 349.859 978.243C339.503 977.477 328.84 976.251 318.664 973.354C284.004 963.481 255.546 944.67 233.29 916.92C223.542 904.753 216.006 891.951 210.682 878.512C202.653 858.243 201.217 837.138 202.82 815.74C208.493 740.597 270.576 682.784 344.813 678.925C352.489 678.526 360.146 678.535 367.784 678.953C383.256 679.789 399.806 680.541 417.434 681.21C426.475 681.554 435.187 681.363 443.568 680.639C486.29 676.975 520.189 649.308 531.577 607.962C532.85 603.383 534.188 598.79 535.591 594.184C535.656 593.961 535.582 593.812 535.368 593.738C535.21 593.673 535.094 593.72 535.02 593.877C533.254 597.695 530.815 601.344 527.702 604.827C509.805 624.86 489.636 641.214 464.672 649.838C453.307 653.766 440.395 655.364 425.936 654.63C401.446 653.39 380.998 641.437 365.108 622.589C350.324 605.064 343.299 584.144 344.033 559.831C344.688 537.876 350.793 517.94 356.131 497.058C356.931 493.956 357.939 488.853 359.156 481.748C365.679 443.564 355.88 406.466 323.599 383.229C305.088 369.883 281.434 364.604 259.383 370.482C233.876 377.295 209.845 406.689 227.882 432.962C234.656 442.839 248.344 446.587 256.916 436.515C258.338 434.852 259.184 432.786 259.453 430.315C259.983 425.314 260.401 419.254 263.426 415.187C267.728 409.401 273.787 406.991 281.602 407.956C299.819 410.185 305.98 430.58 303.764 446.322C302.259 457.021 295.972 468.556 288.097 476.204C274.697 489.224 258.055 494.829 238.169 493.018C217.777 491.165 198.959 478.251 187.125 461.646C174.228 443.545 169.563 423.345 173.131 401.047C175.166 388.314 179.153 377.299 185.09 368.003C197.756 348.175 214.603 334.318 235.632 326.433C285.003 307.919 341.147 322.728 375.813 361.929C393.794 382.259 404.944 405.068 409.265 430.357C413.67 456.115 411.551 483.141 405.056 508.607C397.111 539.784 382.712 580.657 416.792 602.556C423.055 606.578 430.833 608.983 440.126 609.773C458.46 611.324 475.381 606.638 490.89 595.716C512.258 580.657 530.629 554.606 529.263 526.995C529.258 526.896 529.28 526.796 529.327 526.708C529.375 526.62 529.446 526.546 529.532 526.496C529.619 526.445 529.717 526.42 529.817 526.422C529.918 526.424 530.015 526.454 530.1 526.508C544.317 535.605 563.622 533.501 576.961 523.652C600.49 506.266 609.745 477.304 606.051 448.635C604.769 438.753 602.125 429.925 598.12 422.152C586.718 400.086 564.068 386.991 539.62 395.739C528.692 399.654 519.659 409.433 513.471 419.199C512.932 420.062 512.667 419.983 512.676 418.962L512.704 415.772C512.713 415.242 512.555 414.769 512.23 414.351C506.385 406.782 502.478 401.353 500.508 398.066C486.606 374.866 478.006 351.56 474.707 328.147C470.089 295.437 474.113 264.408 486.778 235.061C507.282 187.501 550.06 150.111 601.451 140.122C629.719 134.624 656.384 135.465 681.445 142.644C704.425 149.228 724.571 160.837 741.883 177.471C776.888 211.091 794.994 252.2 796.202 300.8C797.206 341.353 782.277 382.073 757.578 413.473C756.798 414.476 756.254 415.739 755.947 417.262C755.696 418.516 755.227 418.6 754.539 417.513C748.379 407.692 737.534 397.843 726.648 394.889C710.173 390.422 695.862 393.928 683.717 405.407C675.159 413.501 668.831 423.67 665.778 435.219C661.197 452.475 661.206 469.085 665.806 485.05C672.148 507.116 690.129 530.409 714.577 532.136C723.024 532.73 731.034 530.84 738.608 526.466C738.735 526.39 738.882 526.352 739.03 526.356C739.179 526.36 739.323 526.407 739.446 526.49C739.569 526.574 739.666 526.69 739.725 526.827C739.783 526.963 739.802 527.114 739.778 527.26C739.5 529.238 739.374 531.37 739.653 533.376C742.868 556.12 753.415 575.117 771.294 590.367C788.624 605.143 808.096 611.607 829.711 609.759C847.803 608.198 864.738 597.346 870.997 580.072C873.85 572.215 874.816 563.499 873.896 553.924C872.251 536.747 867.038 520.169 863.135 504.107C856.124 475.298 855.135 445.054 862.968 416.789C869.589 392.869 882.942 371.931 901.369 354.267C931.825 325.082 972.804 313.296 1014.19 320.805C1059.53 329.038 1094.92 364.952 1096.94 411.885C1097.37 421.748 1096.25 430.863 1093.6 439.231C1084.76 467.009 1061.34 489.661 1031.82 492.879C1010.35 495.219 992.532 488.565 978.38 472.916C965.933 459.152 961.249 439.538 968.943 422.222C970.309 419.129 972.122 416.468 974.38 414.239C981.702 407.005 990.079 405.579 999.511 409.962C1009.23 414.49 1008.81 422.654 1010.2 431.569C1010.62 434.225 1012.1 436.547 1014.65 438.535C1020.19 442.844 1026.15 443.619 1032.53 440.861C1044.83 435.54 1049.47 417.75 1046.48 405.853C1040.83 383.271 1017.27 369.048 994.772 368.114C975.155 367.306 957.751 373.12 942.558 385.556C920.711 403.443 909.165 426.842 907.92 455.753C907.279 470.84 910.109 487.334 914.276 502.324C919.866 522.398 925.134 542.305 925.204 562.561C925.399 609.494 892.309 649.197 845.461 654.546C836.889 655.521 827.313 655.006 818.727 653.808C812.845 652.991 806.879 651.324 800.83 648.807C787.922 643.439 776.121 636.348 765.426 627.534C753.48 617.699 741.34 606.485 733.381 593.209C732.563 591.844 732.335 591.936 732.698 593.487C734.24 600.1 736.052 606.629 738.134 613.074C745.131 634.681 760.491 653.432 779.42 665.301C795.909 675.652 814.211 680.472 833.948 681.154C843.435 681.488 852.547 681.451 861.281 681.043C877.599 680.3 893.28 679.506 908.324 678.661C918.137 678.113 929.451 678.809 942.265 680.75C965.282 684.214 986.404 693.158 1005.63 707.581C1044.42 736.669 1064.87 775.967 1067 825.478C1068.26 854.742 1060.58 881.693 1043.98 906.332C1015.81 948.111 970.323 974.245 920.186 978.341C919.846 978.369 919.506 978.289 919.216 978.111C918.925 977.933 918.699 977.667 918.569 977.352C911.098 959.26 900.175 943.407 885.8 929.792C865.7 910.748 842.046 896.873 818.601 882.608C805.536 874.658 795.988 868.403 789.958 863.843C758.335 839.938 739.653 808.217 733.91 768.682C732.693 760.314 731.95 751.844 731.68 743.272C731.679 743.177 731.703 743.084 731.752 743.003C731.8 742.921 731.869 742.854 731.953 742.81C732.036 742.765 732.13 742.744 732.225 742.75C732.319 742.755 732.411 742.786 732.489 742.84C734.775 744.414 736.796 746.364 739.235 747.632C746.093 751.18 753.601 754.087 761.76 756.353C762.55 756.576 762.991 757.091 763.084 757.899C766.568 788.408 778.235 814.426 798.084 835.954C823.104 863.105 851.594 889.295 882.413 909.69C889.814 914.593 898.358 919.539 906.763 921.963C939.979 931.533 970.477 922.074 993.406 897.152C1007.94 881.345 1015.94 862.673 1017.41 841.136C1019.29 813.627 1011.48 789.499 994.005 768.751C971.22 741.698 941.731 729.062 905.537 730.845C883.802 731.913 862.164 732.889 840.624 733.771C829.975 734.198 819.693 733.933 809.778 732.977C782.054 730.274 753.55 718.447 733.297 698.707C723.642 689.299 715.665 679.334 709.364 668.811C708.928 668.087 708.77 668.143 708.891 668.979Z" fill="url(#paint0_linear_1105_270)"/>
<path d="M524.176 447.924C530.755 433.715 547.955 428.309 560.862 437.796C581.366 452.87 581.589 503.731 552.471 510.265C536.943 513.733 525.109 501.335 521.318 487.334C517.536 473.348 518.489 460.211 524.176 447.924Z" fill="url(#paint1_linear_1105_270)"/>
<path d="M747.04 452.284C753.424 470.882 751.556 498.813 731.29 508.398C715.985 515.628 701.489 505.598 697.001 491.012C692.754 477.202 693.344 463.582 698.771 450.153C704.179 436.765 719.107 428.602 732.837 435.414C739.593 438.767 744.327 444.39 747.04 452.284Z" fill="url(#paint2_linear_1105_270)"/>
<path d="M237.179 658.085C250.909 642.691 240.733 622.45 221.679 619.998C213.065 618.897 205.232 622.575 199.057 628.245C189.43 637.058 184.528 648.087 184.352 661.331C184.045 684.693 198.89 705.798 215.184 721.094C215.36 721.261 215.468 721.487 215.486 721.73C215.504 721.972 215.431 722.212 215.281 722.403C202.486 738.619 193.203 756.436 189.049 776.761C189.003 776.975 188.9 777.008 188.742 776.859C150.62 740.249 122.004 688.802 136.946 634.555C140.087 623.151 145.756 612.183 153.951 601.651C171.18 579.487 197.956 567.52 226.112 570.237C245.644 572.122 261.753 580.75 274.437 596.12C281.304 604.451 285.267 613.501 286.327 623.271C288.097 639.543 281.755 655.87 266.785 662.654C255.745 667.66 245.895 666.429 237.235 658.962C237.173 658.91 237.123 658.845 237.087 658.773C237.051 658.7 237.03 658.621 237.025 658.539C237.019 658.458 237.03 658.375 237.057 658.297C237.083 658.219 237.125 658.147 237.179 658.085Z" fill="url(#paint3_linear_1105_270)"/>
<path d="M1078.81 638.261C1068.19 620.639 1044.27 610.776 1029.51 630.279C1023.11 638.721 1025.66 649.991 1031.86 657.569C1032.53 658.386 1032.42 659.074 1031.53 659.631C1018.11 667.962 1006 667.497 995.204 658.238C981.683 646.661 979.718 628.245 985.67 612.503C994.995 587.845 1019.05 572.09 1044.9 570.084C1068.27 568.282 1088.55 575.154 1105.71 590.701C1123.29 606.638 1133.37 627.019 1135.96 651.844C1137.82 669.879 1135.87 687.2 1130.1 703.806C1120.54 731.263 1102.29 756.13 1080.81 776.72C1080.79 776.745 1080.75 776.763 1080.72 776.771C1080.68 776.78 1080.64 776.778 1080.61 776.767C1080.57 776.755 1080.54 776.735 1080.52 776.707C1080.49 776.679 1080.47 776.645 1080.47 776.608C1079.76 772.41 1078.64 768.268 1077.11 764.182C1071.29 748.761 1063.28 735.359 1053.69 722.013C1053.37 721.568 1053.41 721.164 1053.83 720.801C1076.45 701.549 1096.34 667.349 1078.81 638.261Z" fill="url(#paint4_linear_1105_270)"/>
<path d="M297.547 798.926C298.291 805.594 300.888 812.42 305.339 819.404C313.34 831.942 325.968 837.472 340.423 838.977C364.118 841.443 384.092 832.206 398.672 812.383C398.714 812.326 398.77 812.28 398.833 812.249C398.897 812.218 398.967 812.202 399.038 812.204C399.109 812.205 399.178 812.223 399.241 812.257C399.303 812.29 399.357 812.338 399.397 812.397C406.942 823.476 416.89 831.018 429.24 835.02C429.366 835.062 429.481 835.135 429.572 835.232C429.663 835.329 429.728 835.448 429.762 835.577C429.795 835.706 429.795 835.841 429.763 835.97C429.73 836.099 429.665 836.218 429.574 836.316C415.431 851.268 400.006 864.4 383.298 875.712C368.235 885.919 351.639 890.275 333.509 888.779C324.783 888.055 317.191 885.724 310.733 881.786C283.414 865.097 278.479 836.093 288.585 807.437C290.397 802.325 293.338 797.811 295.847 792.963C296.395 791.895 296.739 791.96 296.878 793.158C297.111 795.118 297.334 797.04 297.547 798.926Z" fill="url(#paint5_linear_1105_270)"/>
<path d="M972.679 793.381C993.796 826.871 988.095 874.528 945.081 886.578C920.172 893.544 897.341 886.035 877.478 870.293C868.279 862.993 859.851 855.791 852.194 848.686C847.733 844.535 843.705 840.165 840.109 835.578C839.839 835.243 839.909 835.016 840.318 834.895C850.14 831.867 858.684 826.295 865.951 818.178C867.275 816.687 868.139 814.793 869.185 813.079C869.594 812.42 870.016 812.411 870.453 813.051C884.894 834.003 908.101 842.557 933.358 838.085C957.667 833.78 969.989 817.022 971.299 793.729C971.383 792.178 971.843 792.062 972.679 793.381Z" fill="url(#paint6_linear_1105_270)"/>
<path d="M633.678 1065.06C627.73 1074.19 621.639 1080.78 615.404 1084.84C609.327 1088.8 602.455 1093.3 595.792 1095.65C594.937 1095.96 594.84 1095.8 595.5 1095.18C608.23 1083.11 616.617 1068.64 620.659 1051.74C628.074 1020.83 623.098 983.913 603.751 957.793C596.382 947.837 587.229 938.824 576.292 930.753C576.231 930.707 576.18 930.648 576.145 930.58C576.11 930.511 576.091 930.436 576.09 930.359C576.089 930.283 576.105 930.207 576.137 930.137C576.17 930.068 576.218 930.007 576.278 929.959C593.715 916.126 608.17 900.314 618.094 879.738C625.426 864.544 630.736 848.798 634.026 832.499C634.314 831.096 634.63 831.092 634.974 832.485C636.591 839.07 638.458 845.961 640.577 853.158C649.907 884.791 667.418 910.344 693.112 929.82C693.521 930.126 693.516 930.428 693.098 930.725C678.184 941.238 666.865 953.558 659.143 967.684C644.489 994.459 640.888 1022.73 648.341 1052.51C652.118 1067.55 661.053 1083.8 673.375 1094.76C674.239 1095.53 674.137 1095.7 673.068 1095.28C657.048 1088.94 644.229 1078.87 634.611 1065.05C634.295 1064.59 633.984 1064.6 633.678 1065.06Z" fill="url(#paint7_linear_1105_270)"/>
<path d="M724.822 983.676C700.248 1006.51 686.324 1043.51 695.635 1076.82C695.904 1077.77 695.7 1077.89 695.021 1077.17C682.384 1063.6 675.363 1047.82 673.96 1029.83C671.214 994.598 690.477 965.301 721.686 949.587C722.097 949.378 722.555 949.276 723.017 949.291C723.48 949.305 723.933 949.436 724.334 949.671L750.121 964.772C750.169 964.802 750.208 964.843 750.236 964.892C750.264 964.941 750.278 964.996 750.278 965.051C750.278 965.106 750.264 965.159 750.236 965.206C750.208 965.252 750.169 965.29 750.121 965.315C740.912 970.442 732.479 976.562 724.822 983.676Z" fill="url(#paint8_linear_1105_270)"/>
<path d="M567.567 1016.12C558.841 996.103 541.78 979.692 523.339 967.461C521.936 966.532 520.477 965.831 518.962 965.357C518.868 965.33 518.784 965.275 518.721 965.2C518.658 965.124 518.619 965.031 518.61 964.933C518.601 964.835 518.622 964.737 518.67 964.651C518.718 964.565 518.791 964.496 518.879 964.452C527.502 959.864 536.112 955.002 544.707 949.866C546.296 948.919 548.15 949.574 549.614 950.382C581.171 967.948 599.862 998.736 594.426 1035.21C592.071 1051.03 585.338 1064.75 575.093 1077.15C573.709 1078.84 573.337 1078.64 573.978 1076.55C579.749 1057.9 575.219 1033.7 567.567 1016.12Z" fill="url(#paint9_linear_1105_270)"/>
<path d="M1069.39 353.409L1037.99 846.308L737.842 200L1069.39 353.409ZM861.491 990.753L634.695 1120.14L407.895 990.753L454.023 878.977H815.363L861.491 990.753ZM231.072 846.308L200 353.409L531.544 200L231.072 846.308Z" fill="url(#paint10_radial_1105_270)"/>
<path d="M524.176 447.924C530.755 433.715 547.955 428.309 560.862 437.796C581.366 452.87 581.589 503.731 552.471 510.265C536.943 513.733 525.109 501.335 521.318 487.334C517.536 473.348 518.489 460.211 524.176 447.924Z" fill="url(#paint11_linear_1105_270)"/>
<path d="M747.04 452.284C753.424 470.882 751.556 498.813 731.29 508.398C715.985 515.628 701.489 505.598 697.001 491.012C692.754 477.202 693.344 463.582 698.771 450.153C704.179 436.765 719.107 428.602 732.837 435.414C739.593 438.767 744.327 444.39 747.04 452.284Z" fill="url(#paint12_linear_1105_270)"/>
<path d="M237.179 658.085C250.909 642.691 240.733 622.45 221.679 619.998C213.065 618.897 205.232 622.575 199.057 628.245C189.43 637.058 184.528 648.087 184.352 661.331C184.045 684.693 198.89 705.798 215.184 721.094C215.36 721.261 215.468 721.487 215.486 721.73C215.504 721.972 215.431 722.212 215.281 722.403C202.486 738.619 193.203 756.436 189.049 776.761C189.003 776.975 188.9 777.008 188.742 776.859C150.62 740.249 122.004 688.802 136.946 634.555C140.087 623.151 145.756 612.183 153.951 601.651C171.18 579.487 197.956 567.52 226.112 570.237C245.644 572.122 261.753 580.75 274.437 596.12C281.304 604.451 285.267 613.501 286.327 623.271C288.097 639.543 281.755 655.87 266.785 662.654C255.745 667.66 245.895 666.429 237.235 658.962C237.173 658.91 237.123 658.845 237.087 658.773C237.051 658.7 237.03 658.621 237.025 658.539C237.019 658.458 237.03 658.375 237.057 658.297C237.083 658.219 237.125 658.147 237.179 658.085Z" fill="url(#paint13_linear_1105_270)"/>
<path d="M297.547 798.926C298.291 805.594 300.888 812.42 305.339 819.404C313.34 831.942 325.968 837.472 340.423 838.977C364.118 841.443 384.092 832.206 398.672 812.383C398.714 812.326 398.77 812.28 398.833 812.249C398.897 812.218 398.967 812.202 399.038 812.204C399.109 812.205 399.178 812.223 399.241 812.257C399.303 812.29 399.357 812.338 399.397 812.397C406.942 823.476 416.89 831.018 429.24 835.02C429.366 835.062 429.481 835.135 429.572 835.232C429.663 835.329 429.728 835.448 429.762 835.577C429.795 835.706 429.795 835.841 429.763 835.97C429.73 836.099 429.665 836.218 429.574 836.316C415.431 851.268 400.006 864.4 383.298 875.712C368.235 885.919 351.639 890.275 333.509 888.779C324.783 888.055 317.191 885.724 310.733 881.786C283.414 865.097 278.479 836.093 288.585 807.437C290.397 802.325 293.338 797.811 295.847 792.963C296.395 791.895 296.739 791.96 296.878 793.158C297.111 795.118 297.334 797.04 297.547 798.926Z" fill="url(#paint14_linear_1105_270)"/>
<path d="M972.679 793.381C993.796 826.871 988.095 874.528 945.081 886.578C920.172 893.544 897.341 886.035 877.478 870.293C868.279 862.993 859.851 855.791 852.194 848.686C847.733 844.535 843.705 840.165 840.109 835.578C839.839 835.243 839.909 835.016 840.318 834.895C850.14 831.867 858.684 826.295 865.951 818.178C867.275 816.687 868.139 814.793 869.185 813.079C869.594 812.42 870.016 812.411 870.453 813.051C884.894 834.003 908.101 842.557 933.358 838.085C957.667 833.78 969.989 817.022 971.299 793.729C971.383 792.178 971.843 792.062 972.679 793.381Z" fill="url(#paint15_linear_1105_270)"/>
<path d="M1029.51 630.279C1023.11 638.721 1025.66 649.991 1031.86 657.569C1032.53 658.386 1032.42 659.074 1031.53 659.631C1018.11 667.962 1006 667.497 995.204 658.238C981.683 646.661 979.718 628.245 985.67 612.503C994.995 587.845 1019.05 572.09 1044.9 570.084C1048.5 569.805 1052.04 569.734 1055.5 569.869L1052.5 619.762C1044.34 618.777 1036.03 621.661 1029.51 630.279Z" fill="url(#paint16_linear_1105_270)"/>
<path d="M1093.6 439.231C1096.25 430.863 1097.37 421.748 1096.94 411.885C1096.77 407.868 1096.35 403.931 1095.7 400.086C1096.86 412.172 1044.63 435.626 1032.53 440.861C1026.15 443.619 1020.19 442.844 1014.65 438.535C1012.1 436.547 1010.62 434.225 1010.2 431.569C1008.81 422.654 1009.23 414.49 999.511 409.962C990.079 405.579 981.702 407.005 974.38 414.239C972.122 416.468 970.309 419.129 968.943 422.222C961.249 439.538 965.933 459.152 978.38 472.916C992.532 488.565 1010.35 495.219 1031.82 492.879C1061.34 489.661 1084.76 467.009 1093.6 439.231Z" fill="url(#paint17_linear_1105_270)"/>
<path fill-rule="evenodd" clip-rule="evenodd" d="M709.155 676.125C709.309 673.771 709.253 671.347 708.891 668.979C708.77 668.143 708.928 668.087 709.364 668.811C715.665 679.334 723.642 689.299 733.297 698.707C753.55 718.447 782.054 730.274 809.778 732.977C819.693 733.933 829.975 734.198 840.624 733.771C862.164 732.889 883.802 731.913 905.537 730.845C941.731 729.062 971.22 741.698 994.005 768.751C1011.48 789.499 1019.29 813.627 1017.41 841.136C1015.94 862.673 1007.94 881.345 993.406 897.152C970.477 922.074 939.979 931.533 906.763 921.963C898.358 919.539 889.814 914.593 882.413 909.69C851.594 889.295 823.104 863.105 798.084 835.954C778.235 814.426 766.568 788.408 763.084 757.899C762.991 757.091 762.55 756.576 761.76 756.353C753.601 754.087 746.093 751.18 739.235 747.632C737.689 746.829 736.311 745.751 734.927 744.669C734.127 744.043 733.326 743.416 732.489 742.84C732.411 742.786 732.319 742.755 732.225 742.75C732.13 742.744 732.036 742.765 731.953 742.81C731.869 742.854 731.8 742.921 731.752 743.003C731.703 743.084 731.679 743.177 731.68 743.272C731.95 751.844 732.693 760.314 733.91 768.682C739.653 808.217 758.335 839.938 789.958 863.843C795.988 868.403 805.536 874.658 818.601 882.608C820.147 883.548 821.693 884.487 823.24 885.426C845.149 898.725 867.025 912.004 885.8 929.792C900.175 943.407 911.098 959.26 918.569 977.352C918.699 977.667 918.925 977.933 919.216 978.111C919.506 978.289 919.846 978.369 920.186 978.341C970.323 974.245 1015.81 948.111 1043.98 906.332C1060.58 881.693 1068.26 854.742 1067 825.478C1064.87 775.967 1044.42 736.669 1005.63 707.581C986.404 693.158 965.282 684.214 942.265 680.75C929.451 678.809 918.137 678.113 908.324 678.661C893.28 679.506 877.599 680.3 861.281 681.043C852.547 681.451 843.435 681.488 833.948 681.154C814.211 680.472 795.909 675.652 779.42 665.301C760.491 653.432 745.131 634.681 738.134 613.074C736.052 606.629 734.24 600.1 732.698 593.487C732.335 591.936 732.563 591.844 733.381 593.209C741.34 606.485 753.48 617.699 765.426 627.534C776.121 636.348 787.922 643.439 800.83 648.807C806.879 651.324 812.845 652.991 818.727 653.808C827.313 655.006 836.889 655.521 845.461 654.546C881.707 650.407 909.717 625.705 920.449 593L857.477 458.5C857.474 473.771 859.491 489.133 863.135 504.107C864.072 507.961 865.084 511.845 866.104 515.76C869.335 528.16 872.646 540.869 873.896 553.924C874.816 563.499 873.85 572.215 870.997 580.072C864.738 597.346 847.803 608.198 829.711 609.759C808.096 611.607 788.624 605.143 771.294 590.367C753.415 575.117 742.868 556.12 739.653 533.376C739.374 531.37 739.5 529.238 739.778 527.26C739.802 527.114 739.783 526.963 739.725 526.827C739.666 526.69 739.569 526.574 739.446 526.49C739.323 526.407 739.179 526.36 739.03 526.356C738.882 526.352 738.735 526.39 738.608 526.466C731.034 530.84 723.024 532.73 714.577 532.136C690.129 530.409 672.148 507.116 665.806 485.05C661.206 469.085 661.197 452.475 665.778 435.219C668.831 423.67 675.159 413.501 683.717 405.407C695.862 393.928 710.173 390.422 726.648 394.889C737.534 397.843 748.379 407.692 754.539 417.513C755.227 418.6 755.696 418.516 755.947 417.262C756.254 415.739 756.798 414.476 757.578 413.473C782.277 382.073 797.206 341.353 796.202 300.8C794.994 252.2 776.888 211.091 741.883 177.471C724.571 160.837 704.425 149.228 681.445 142.644C656.384 135.465 629.719 134.624 601.451 140.122C550.06 150.111 507.282 187.501 486.778 235.061C474.113 264.408 470.089 295.437 474.707 328.147C478.006 351.56 486.606 374.866 500.508 398.066C502.478 401.353 506.385 406.782 512.23 414.351C512.555 414.769 512.713 415.242 512.704 415.772L512.676 418.962C512.667 419.983 512.932 420.062 513.471 419.199C519.659 409.433 528.692 399.654 539.62 395.739C564.068 386.991 586.718 400.086 598.12 422.152C602.125 429.925 604.769 438.753 606.051 448.635C609.745 477.304 600.49 506.266 576.961 523.652C563.622 533.501 544.317 535.605 530.1 526.508C530.015 526.454 529.918 526.424 529.817 526.422C529.717 526.42 529.619 526.445 529.532 526.496C529.446 526.546 529.375 526.62 529.327 526.708C529.28 526.796 529.258 526.896 529.263 526.995C530.629 554.606 512.258 580.657 490.89 595.716C475.381 606.638 458.46 611.324 440.126 609.773C430.833 608.983 423.055 606.578 416.792 602.556C385.509 582.454 395.075 546.363 403 516.461L403.001 516.457L403.008 516.431C403.714 513.769 404.407 511.155 405.056 508.607C409.257 492.135 411.628 475.012 411.586 458L348.666 593.5C352.175 604.059 357.656 613.755 365.108 622.589C380.998 641.437 401.446 653.39 425.936 654.63C440.395 655.364 453.307 653.766 464.672 649.838C489.636 641.214 509.805 624.86 527.702 604.827C530.815 601.344 533.254 597.695 535.02 593.877C535.094 593.72 535.21 593.673 535.368 593.738C535.582 593.812 535.656 593.961 535.591 594.184C534.188 598.79 532.85 603.383 531.577 607.962C520.189 649.308 486.29 676.975 443.568 680.639C435.187 681.363 426.475 681.554 417.434 681.21C399.806 680.541 383.256 679.789 367.784 678.953C360.146 678.535 352.489 678.526 344.813 678.925C270.576 682.784 208.493 740.597 202.82 815.74C201.217 837.138 202.653 858.243 210.682 878.512C216.006 891.951 223.542 904.753 233.29 916.92C255.546 944.67 284.004 963.481 318.664 973.354C328.84 976.251 339.503 977.477 349.859 978.243C350.203 978.271 350.44 978.123 350.57 977.797C357.107 961.54 366.585 946.481 379.451 933.776C391.754 921.628 405.126 911.041 419.566 902.014C432.808 893.748 445.813 885.603 458.58 877.579C483.489 861.921 506.404 842.501 520.022 815.782C531.577 793.13 536.553 768.96 537.71 743.787C537.714 743.732 537.702 743.676 537.676 743.627C537.65 743.577 537.612 743.536 537.565 743.508C537.518 743.48 537.465 743.467 537.411 743.469L537.401 743.47L537.392 743.471C537.379 743.473 537.366 743.475 537.353 743.479C537.34 743.482 537.328 743.487 537.316 743.492C537.298 743.5 537.28 743.51 537.264 743.523C527.869 749.782 517.708 754.026 506.78 756.255C506.288 756.357 506.014 756.655 505.958 757.147C502.817 785.965 491.954 811.101 473.369 832.555C451.829 857.435 427.135 880.518 399.285 901.805C390.792 908.287 382.722 913.428 375.074 917.226C349.246 930.07 314.399 928.552 290.02 910.637C269.391 895.48 256.977 875.178 252.776 849.731C246.755 813.302 261.655 778.001 289.867 754.486C309.809 737.862 333.486 730.019 360.898 730.957C382.252 731.7 404.164 732.619 426.633 733.715C437.124 734.226 447.629 733.943 458.148 732.865C500.698 728.5 533.501 708.923 556.555 674.133C557.456 672.768 558.186 671.319 558.743 669.787C559.227 668.477 559.496 668.519 559.552 669.912C559.868 677.425 560.365 685.05 561.043 692.786C561.681 699.979 562.069 707.003 562.457 714.044L562.458 714.046L562.458 714.056C562.604 716.707 562.751 719.361 562.911 722.027C564.212 743.796 563.334 764.604 560.277 784.451C554.771 820.24 536.205 851.626 509.484 874.598C489.036 892.192 465.689 904.8 441.519 917.672C430.48 923.551 419.455 930.293 409.419 937.593C390.295 951.487 375.645 968.506 365.47 988.65C358.231 1002.99 354.575 1018.29 354.501 1034.57C354.436 1047.48 356.354 1058.89 360.257 1068.79C370.014 1093.53 386.527 1111.97 409.795 1124.1C440.265 1139.98 477.537 1139.56 506 1120.28C524.259 1107.93 536.902 1088.51 540.33 1066.73C540.343 1066.65 540.356 1066.57 540.369 1066.49L540.387 1066.37L486.179 1035.5C491.297 1041.76 493.42 1050.39 491.796 1058.79C488.994 1073.32 477.314 1081.4 462.887 1081.99C445.283 1082.71 429.588 1075.26 420.848 1059.93C404.178 1030.69 419.385 997.259 442.579 976.182C451.23 968.315 461.944 961.085 474.721 954.491C505.219 938.749 535.508 922.116 559.44 897.068C583.601 871.788 599.797 841.986 608.03 807.66C611.199 794.435 613.285 782.473 614.289 771.774C615.918 754.32 615.876 736.348 615.834 718.098C615.817 710.741 615.8 703.339 615.892 695.907C616.031 684.614 616.612 675.35 617.634 668.115C619.167 657.202 621.425 646.49 624.408 635.976C627.726 624.265 630.918 612.522 633.984 600.745C634.133 600.169 634.183 599.563 634.232 598.958C634.29 598.26 634.347 597.563 634.556 596.914C634.844 596.06 635.039 596.083 635.141 596.984C635.652 601.08 636.447 605.064 637.525 608.937C640.888 621.029 644.053 632.698 647.017 643.945C651.078 659.371 653.317 675.35 653.735 691.881C654.051 704.79 654.172 720.421 654.098 738.772C654 759.25 655.519 779.13 659.06 798.466C667.897 846.625 694.548 890.34 734.956 919.455C753.829 933.052 773.914 943.542 795.979 955.062C817.166 966.137 835.049 980.528 846.632 1001.34C858.076 1021.9 859.804 1046.87 844.444 1066.13C838.766 1073.25 831.49 1077.94 822.616 1080.2C811.061 1083.14 798.126 1083.09 788.396 1076.34C777.315 1068.64 773.621 1052.63 779.378 1040.53C780.157 1038.89 781.08 1037.38 782.149 1036L728.835 1066.5C731.987 1088.19 742.656 1105.65 760.84 1118.86C771.229 1126.41 781.576 1131.16 791.881 1133.11C821.115 1138.65 847.626 1133.09 871.415 1116.44C893.41 1101.04 907.033 1080.52 912.283 1054.89C918.212 1025.89 912.413 998.671 894.888 973.242C882.445 955.188 865.733 939.836 844.75 927.187C835.957 921.883 826.896 916.934 817.819 911.976L817.817 911.975C796.494 900.328 775.083 888.633 756.839 872.188C730.579 848.524 714.712 819.678 709.239 785.649C704.653 757.119 705.294 727.446 707.538 698.679C708.105 691.454 708.644 683.936 709.155 676.125ZM187.125 461.646C174.228 443.545 169.476 422.97 173.131 401.047C171.866 414.212 248.344 446.587 256.916 436.515C258.338 434.852 259.184 432.786 259.453 430.315C259.491 429.953 259.529 429.585 259.567 429.213L259.568 429.21C260.057 424.444 260.621 418.959 263.426 415.187C267.728 409.401 273.787 406.991 281.602 407.956C299.819 410.185 305.98 430.58 303.764 446.322C302.259 457.021 295.972 468.556 288.097 476.204C274.697 489.224 258.055 494.829 238.169 493.018C217.777 491.165 198.959 478.251 187.125 461.646ZM470 1026.17L461.064 1021C461.282 1021.54 461.532 1022.07 461.814 1022.6C462.39 1023.7 463.301 1024.4 464.546 1024.72C466.387 1025.18 468.205 1025.67 470 1026.17Z" fill="url(#paint18_linear_1105_270)"/>
<path d="M513.661 418.657C526.067 392.245 558.502 382.199 582.842 399.832C621.506 427.849 621.927 522.387 567.019 534.532C537.738 540.979 515.422 517.934 508.273 491.91C501.141 465.913 502.937 441.495 513.661 418.657Z" fill="white"/>
<path d="M761.85 425.231C773.888 459.8 770.366 511.716 732.148 529.531C703.288 542.97 675.952 524.327 667.488 497.216C659.48 471.547 660.593 446.231 670.827 421.27C681.025 396.386 709.176 381.212 735.066 393.874C747.805 400.106 756.733 410.558 761.85 425.231Z" fill="white"/>
<path d="M524.176 447.924C530.755 433.715 547.955 428.31 560.863 437.796C581.366 452.87 581.589 503.731 552.471 510.265C536.944 513.733 525.11 501.335 521.319 487.335C517.537 473.348 518.489 460.211 524.176 447.924Z" fill="black"/>
<path d="M747.041 452.284C753.425 470.882 751.557 498.814 731.29 508.398C715.986 515.628 701.489 505.598 697.001 491.012C692.755 477.202 693.345 463.582 698.771 450.153C704.18 436.766 719.108 428.602 732.837 435.414C739.593 438.767 744.327 444.39 747.041 452.284Z" fill="black"/>
<path d="M655.233 517.005C666.899 529.464 653.292 583.489 653.261 573.863C653.155 540.431 646.675 532.661 655.233 517.005Z" fill="#3D000E"/>
<path d="M617.138 520.437C628.804 532.895 617.167 592.146 617.136 582.52C617.03 549.088 608.58 536.092 617.138 520.437Z" fill="#3D000E"/>
<path d="M635.815 527.75C647.481 540.208 633.874 594.234 633.843 584.607C633.737 551.175 627.257 543.405 635.815 527.75Z" fill="#3D000E"/>
<defs>
<linearGradient id="paint0_linear_1105_270" x1="132.91" y1="952.397" x2="1322.03" y2="768.591" gradientUnits="userSpaceOnUse">
<stop stop-color="#75011D"/>
<stop offset="0.526" stop-color="#A30024"/>
<stop offset="1" stop-color="#DD0031"/>
</linearGradient>
<linearGradient id="paint1_linear_1105_270" x1="132.91" y1="952.397" x2="1322.03" y2="768.591" gradientUnits="userSpaceOnUse">
<stop stop-color="#75011D"/>
<stop offset="0.526" stop-color="#A30024"/>
<stop offset="1" stop-color="#DD0031"/>
</linearGradient>
<linearGradient id="paint2_linear_1105_270" x1="132.91" y1="952.397" x2="1322.03" y2="768.591" gradientUnits="userSpaceOnUse">
<stop stop-color="#75011D"/>
<stop offset="0.526" stop-color="#A30024"/>
<stop offset="1" stop-color="#DD0031"/>
</linearGradient>
<linearGradient id="paint3_linear_1105_270" x1="132.91" y1="952.397" x2="1322.03" y2="768.591" gradientUnits="userSpaceOnUse">
<stop stop-color="#75011D"/>
<stop offset="0.526" stop-color="#A30024"/>
<stop offset="1" stop-color="#DD0031"/>
</linearGradient>
<linearGradient id="paint4_linear_1105_270" x1="132.91" y1="952.397" x2="1322.03" y2="768.591" gradientUnits="userSpaceOnUse">
<stop stop-color="#75011D"/>
<stop offset="0.526" stop-color="#A30024"/>
<stop offset="1" stop-color="#DD0031"/>
</linearGradient>
<linearGradient id="paint5_linear_1105_270" x1="132.91" y1="952.397" x2="1322.03" y2="768.591" gradientUnits="userSpaceOnUse">
<stop stop-color="#75011D"/>
<stop offset="0.526" stop-color="#A30024"/>
<stop offset="1" stop-color="#DD0031"/>
</linearGradient>
<linearGradient id="paint6_linear_1105_270" x1="132.91" y1="952.397" x2="1322.03" y2="768.591" gradientUnits="userSpaceOnUse">
<stop stop-color="#75011D"/>
<stop offset="0.526" stop-color="#A30024"/>
<stop offset="1" stop-color="#DD0031"/>
</linearGradient>
<linearGradient id="paint7_linear_1105_270" x1="132.91" y1="952.397" x2="1322.03" y2="768.591" gradientUnits="userSpaceOnUse">
<stop stop-color="#75011D"/>
<stop offset="0.526" stop-color="#A30024"/>
<stop offset="1" stop-color="#DD0031"/>
</linearGradient>
<linearGradient id="paint8_linear_1105_270" x1="132.91" y1="952.397" x2="1322.03" y2="768.591" gradientUnits="userSpaceOnUse">
<stop stop-color="#75011D"/>
<stop offset="0.526" stop-color="#A30024"/>
<stop offset="1" stop-color="#DD0031"/>
</linearGradient>
<linearGradient id="paint9_linear_1105_270" x1="132.91" y1="952.397" x2="1322.03" y2="768.591" gradientUnits="userSpaceOnUse">
<stop stop-color="#75011D"/>
<stop offset="0.526" stop-color="#A30024"/>
<stop offset="1" stop-color="#DD0031"/>
</linearGradient>
<radialGradient id="paint10_radial_1105_270" cx="0" cy="0" r="1" gradientUnits="userSpaceOnUse" gradientTransform="translate(249 360) rotate(45) scale(987.828 933.337)">
<stop stop-color="#BEDBF6"/>
<stop offset="1" stop-color="white"/>
</radialGradient>
<linearGradient id="paint11_linear_1105_270" x1="132.91" y1="952.397" x2="1277.17" y2="782.505" gradientUnits="userSpaceOnUse">
<stop stop-color="#75011D"/>
<stop offset="0.526" stop-color="#A30024"/>
<stop offset="1" stop-color="#DD0031"/>
</linearGradient>
<linearGradient id="paint12_linear_1105_270" x1="132.91" y1="952.397" x2="1277.17" y2="782.505" gradientUnits="userSpaceOnUse">
<stop stop-color="#75011D"/>
<stop offset="0.526" stop-color="#A30024"/>
<stop offset="1" stop-color="#DD0031"/>
</linearGradient>
<linearGradient id="paint13_linear_1105_270" x1="132.91" y1="952.397" x2="1277.17" y2="782.505" gradientUnits="userSpaceOnUse">
<stop stop-color="#75011D"/>
<stop offset="0.526" stop-color="#A30024"/>
<stop offset="1" stop-color="#DD0031"/>
</linearGradient>
<linearGradient id="paint14_linear_1105_270" x1="132.91" y1="952.397" x2="1277.17" y2="782.505" gradientUnits="userSpaceOnUse">
<stop stop-color="#75011D"/>
<stop offset="0.526" stop-color="#A30024"/>
<stop offset="1" stop-color="#DD0031"/>
</linearGradient>
<linearGradient id="paint15_linear_1105_270" x1="132.91" y1="952.397" x2="1277.17" y2="782.505" gradientUnits="userSpaceOnUse">
<stop stop-color="#75011D"/>
<stop offset="0.526" stop-color="#A30024"/>
<stop offset="1" stop-color="#DD0031"/>
</linearGradient>
<linearGradient id="paint16_linear_1105_270" x1="132.91" y1="952.397" x2="1277.17" y2="782.505" gradientUnits="userSpaceOnUse">
<stop stop-color="#75011D"/>
<stop offset="0.526" stop-color="#A30024"/>
<stop offset="1" stop-color="#DD0031"/>
</linearGradient>
<linearGradient id="paint17_linear_1105_270" x1="132.91" y1="952.397" x2="1277.17" y2="782.505" gradientUnits="userSpaceOnUse">
<stop stop-color="#75011D"/>
<stop offset="0.526" stop-color="#A30024"/>
<stop offset="1" stop-color="#DD0031"/>
</linearGradient>
<linearGradient id="paint18_linear_1105_270" x1="132.91" y1="952.397" x2="1277.17" y2="782.505" gradientUnits="userSpaceOnUse">
<stop stop-color="#75011D"/>
<stop offset="0.526" stop-color="#A30024"/>
<stop offset="1" stop-color="#DD0031"/>
</linearGradient>
</defs>
</svg>
